<?xml version="1.0" encoding="UTF-8" standalone="no" ?>
<!DOCTYPE svg PUBLIC "-//W3C//DTD SVG 1.1//EN" "http://www.w3.org/Graphics/SVG/1.1/DTD/svg11.dtd">
<svg width="28mm" xmlns="http://www.w3.org/2000/svg" height="129mm" version="1.1" viewBox="0 0 106 491" xmlns:xlink="http://www.w3.org/1999/xlink">
   <polyline fill="none" points="54,49 54,145" stroke="#0080ff" stroke-width="1"/>
   <text x="68" y="69" fill="#000000" font-size="10" font-family="Arial" text-anchor="middle">0..1</text>
   <text x="67" y="132" fill="#000000" font-size="10" font-family="Arial" text-anchor="middle">0..*</text>
   <polyline fill="none" points="53,305 53,187" stroke="#0080ff" stroke-width="1"/>
   <text x="65" y="276" fill="#000000" font-size="10" font-family="Arial" text-anchor="middle">0..*</text>
   <text x="65" y="286" fill="#000000" font-size="10" font-family="Arial" text-anchor="middle">from</text>
   <text x="65" y="207" fill="#000000" font-size="10" font-family="Arial" text-anchor="middle">0..*</text>
   <text x="65" y="217" fill="#000000" font-size="10" font-family="Arial" text-anchor="middle">to</text>
   <polyline fill="none" points="53,441 53,343" stroke="#0080ff" stroke-width="1"/>
   <text x="65" y="417" fill="#000000" font-size="10" font-family="Arial" text-anchor="middle">0..*</text>
   <text x="65" y="427" fill="#000000" font-size="10" font-family="Arial" text-anchor="middle">from</text>
   <text x="65" y="362" fill="#000000" font-size="10" font-family="Arial" text-anchor="middle">0..*</text>
   <text x="65" y="372" fill="#000000" font-size="10" font-family="Arial" text-anchor="middle">to</text>
   <defs>
      <linearGradient id="Gradient1" x1="0%" x2="100%" y1="0%" y2="100%" gradientUnits="objectBoundingBox">
         <stop offset="5%" stop-color="#ffffff"/>
         <stop offset="95%" stop-color="#aee4ff"/>
      </linearGradient>
   </defs>
   <rect x="5" y="2" fill="url(#Gradient1)" width="99" height="55" stroke="#0080ff" stroke-width="1"/>
   <text x="53" y="13" fill="#000000" font-size="10" font-family="Arial" text-anchor="middle">Dependencies</text>
   <line x1="5" x2="104" y1="21" y2="21" stroke="#0080ff" stroke-width="1"/>
   <line x1="5" x2="104" y1="38" y2="38" stroke="#0080ff" stroke-width="1"/>
   <defs>
      <linearGradient id="Gradient2" x1="0%" x2="100%" y1="0%" y2="100%" gradientUnits="objectBoundingBox">
         <stop offset="5%" stop-color="#ffffff"/>
         <stop offset="95%" stop-color="#aee4ff"/>
      </linearGradient>
   </defs>
   <rect x="4" y="139" fill="url(#Gradient2)" width="99" height="55" stroke="#0080ff" stroke-width="1"/>
   <text x="52" y="150" fill="#000000" font-size="10" font-family="Arial" text-anchor="middle">Imports</text>
   <line x1="4" x2="103" y1="158" y2="158" stroke="#0080ff" stroke-width="1"/>
   <line x1="4" x2="103" y1="175" y2="175" stroke="#0080ff" stroke-width="1"/>
   <defs>
      <linearGradient id="Gradient3" x1="0%" x2="100%" y1="0%" y2="100%" gradientUnits="objectBoundingBox">
         <stop offset="5%" stop-color="#ffffff"/>
         <stop offset="95%" stop-color="#aee4ff"/>
      </linearGradient>
   </defs>
   <rect x="4" y="295" fill="url(#Gradient3)" width="99" height="55" stroke="#0080ff" stroke-width="1"/>
   <text x="52" y="306" fill="#000000" font-size="10" font-family="Arial" text-anchor="middle">AttributesProperties</text>
   <line x1="4" x2="103" y1="314" y2="314" stroke="#0080ff" stroke-width="1"/>
   <line x1="4" x2="103" y1="331" y2="331" stroke="#0080ff" stroke-width="1"/>
   <defs>
      <linearGradient id="Gradient4" x1="0%" x2="100%" y1="0%" y2="100%" gradientUnits="objectBoundingBox">
         <stop offset="5%" stop-color="#ffffff"/>
         <stop offset="95%" stop-color="#aee4ff"/>
      </linearGradient>
   </defs>
   <rect x="2" y="434" fill="url(#Gradient4)" width="100" height="55" stroke="#0080ff" stroke-width="1"/>
   <text x="51" y="445" fill="#000000" font-size="10" font-family="Arial" text-anchor="middle">AttributesTypes</text>
   <line x1="2" x2="102" y1="453" y2="453" stroke="#0080ff" stroke-width="1"/>
   <line x1="2" x2="102" y1="470" y2="470" stroke="#0080ff" stroke-width="1"/>
</svg>
