<?xml version="1.0" encoding="UTF-8" standalone="no" ?>
<!DOCTYPE svg PUBLIC "-//W3C//DTD SVG 1.1//EN" "http://www.w3.org/Graphics/SVG/1.1/DTD/svg11.dtd">
<svg width="84mm" xmlns="http://www.w3.org/2000/svg" height="117mm" version="1.1" viewBox="0 0 318 443" xmlns:xlink="http://www.w3.org/1999/xlink">
   <polyline fill="none" points="95,170 229,170" stroke="#0080ff" stroke-width="1"/>
   <text x="118" y="185" fill="#000000" font-size="10" font-family="Arial" text-anchor="middle">0..*</text>
   <text x="118" y="195" fill="#000000" font-size="10" font-family="Arial" text-anchor="middle">from</text>
   <text x="204" y="184" fill="#000000" font-size="10" font-family="Arial" text-anchor="middle">0..*</text>
   <text x="204" y="194" fill="#000000" font-size="10" font-family="Arial" text-anchor="middle">to</text>
   <polyline fill="none" points="96,31 266,31 266,146" stroke="#0080ff" stroke-width="1"/>
   <text x="121" y="46" fill="#000000" font-size="10" font-family="Arial" text-anchor="middle">0..*</text>
   <text x="121" y="56" fill="#000000" font-size="10" font-family="Arial" text-anchor="middle">from</text>
   <text x="253" y="120" fill="#000000" font-size="10" font-family="Arial" text-anchor="middle">0..*</text>
   <text x="253" y="130" fill="#000000" font-size="10" font-family="Arial" text-anchor="middle">to</text>
   <polyline fill="none" points="96,292 234,292 234,186" stroke="#0080ff" stroke-width="1"/>
   <text x="119" y="307" fill="#000000" font-size="10" font-family="Arial" text-anchor="middle">0..*</text>
   <text x="119" y="317" fill="#000000" font-size="10" font-family="Arial" text-anchor="middle">from</text>
   <text x="247" y="208" fill="#000000" font-size="10" font-family="Arial" text-anchor="middle">0..*</text>
   <text x="247" y="218" fill="#000000" font-size="10" font-family="Arial" text-anchor="middle">to</text>
   <polyline fill="none" points="99,410 288,410 288,184" stroke="#0080ff" stroke-width="1"/>
   <text x="120" y="424" fill="#000000" font-size="10" font-family="Arial" text-anchor="middle">0..*</text>
   <text x="120" y="434" fill="#000000" font-size="10" font-family="Arial" text-anchor="middle">from</text>
   <text x="299" y="207" fill="#000000" font-size="10" font-family="Arial" text-anchor="middle">0..*</text>
   <text x="299" y="217" fill="#000000" font-size="10" font-family="Arial" text-anchor="middle">to</text>
   <defs>
      <linearGradient id="Gradient1" x1="0%" x2="100%" y1="0%" y2="100%" gradientUnits="objectBoundingBox">
         <stop offset="5%" stop-color="#ffffff"/>
         <stop offset="95%" stop-color="#aee4ff"/>
      </linearGradient>
   </defs>
   <rect x="2" y="139" fill="url(#Gradient1)" width="99" height="54" stroke="#0080ff" stroke-width="1"/>
   <text x="50" y="150" fill="#000000" font-size="10" font-family="Arial" text-anchor="middle">Imports</text>
   <line x1="2" x2="101" y1="158" y2="158" stroke="#0080ff" stroke-width="1"/>
   <line x1="2" x2="101" y1="175" y2="175" stroke="#0080ff" stroke-width="1"/>
   <defs>
      <linearGradient id="Gradient2" x1="0%" x2="100%" y1="0%" y2="100%" gradientUnits="objectBoundingBox">
         <stop offset="5%" stop-color="#ffffff"/>
         <stop offset="95%" stop-color="#aee4ff"/>
      </linearGradient>
   </defs>
   <rect x="3" y="2" fill="url(#Gradient2)" width="99" height="54" stroke="#0080ff" stroke-width="1"/>
   <text x="51" y="13" fill="#000000" font-size="10" font-family="Arial" text-anchor="middle">Dependencies</text>
   <line x1="3" x2="102" y1="21" y2="21" stroke="#0080ff" stroke-width="1"/>
   <line x1="3" x2="102" y1="38" y2="38" stroke="#0080ff" stroke-width="1"/>
   <defs>
      <linearGradient id="Gradient3" x1="0%" x2="100%" y1="0%" y2="100%" gradientUnits="objectBoundingBox">
         <stop offset="5%" stop-color="#ffffff"/>
         <stop offset="95%" stop-color="#aee4ff"/>
      </linearGradient>
   </defs>
   <rect x="3" y="263" fill="url(#Gradient3)" width="99" height="54" stroke="#0080ff" stroke-width="1"/>
   <text x="51" y="274" fill="#000000" font-size="10" font-family="Arial" text-anchor="middle">AttributesProperties</text>
   <line x1="3" x2="102" y1="282" y2="282" stroke="#0080ff" stroke-width="1"/>
   <line x1="3" x2="102" y1="299" y2="299" stroke="#0080ff" stroke-width="1"/>
   <defs>
      <linearGradient id="Gradient4" x1="0%" x2="100%" y1="0%" y2="100%" gradientUnits="objectBoundingBox">
         <stop offset="5%" stop-color="#ffffff"/>
         <stop offset="95%" stop-color="#aee4ff"/>
      </linearGradient>
   </defs>
   <rect x="3" y="380" fill="url(#Gradient4)" width="100" height="55" stroke="#0080ff" stroke-width="1"/>
   <text x="52" y="391" fill="#000000" font-size="10" font-family="Arial" text-anchor="middle">AttributesTypes</text>
   <line x1="3" x2="103" y1="399" y2="399" stroke="#0080ff" stroke-width="1"/>
   <line x1="3" x2="103" y1="416" y2="416" stroke="#0080ff" stroke-width="1"/>
   <defs>
      <linearGradient id="Gradient5" x1="0%" x2="100%" y1="0%" y2="100%" gradientUnits="objectBoundingBox">
         <stop offset="5%" stop-color="#ffffff"/>
         <stop offset="95%" stop-color="#aee4ff"/>
      </linearGradient>
   </defs>
   <rect x="221" y="139" fill="url(#Gradient5)" width="95" height="55" stroke="#0080ff" stroke-width="1"/>
   <text x="267" y="150" fill="#000000" font-size="10" font-family="Arial" text-anchor="middle">Sites</text>
   <line x1="221" x2="316" y1="158" y2="158" stroke="#0080ff" stroke-width="1"/>
   <line x1="221" x2="316" y1="175" y2="175" stroke="#0080ff" stroke-width="1"/>
   <text x="225" y="185" fill="#000000" font-size="10" font-family="Arial">+</text>
   <text x="239" y="185" fill="#000000" font-size="10" font-family="Arial">Sites ()</text>
</svg>
