<?xml version="1.0" encoding="UTF-8" standalone="no" ?>
<!DOCTYPE svg PUBLIC "-//W3C//DTD SVG 1.1//EN" "http://www.w3.org/Graphics/SVG/1.1/DTD/svg11.dtd">
<svg width="24mm" xmlns="http://www.w3.org/2000/svg" height="60mm" version="1.1" viewBox="0 0 92 229" xmlns:xlink="http://www.w3.org/1999/xlink">
   <polyline fill="none" points="39,43 39,21 8,21 8,55 34,55" stroke="#0080ff" stroke-width="1"/>
   <text x="22" y="13" fill="#000000" font-size="10" font-family="Arial" text-anchor="middle">0..1</text>
   <text x="14" y="65" fill="#000000" font-size="10" font-family="Arial" text-anchor="middle">0..*</text>
   <polyline fill="none" points="55,82 55,178" stroke="#0080ff" stroke-width="1"/>
   <text x="68" y="102" fill="#000000" font-size="10" font-family="Arial" text-anchor="middle">0..*</text>
   <text x="68" y="112" fill="#000000" font-size="10" font-family="Arial" text-anchor="middle">from</text>
   <text x="69" y="156" fill="#000000" font-size="10" font-family="Arial" text-anchor="middle">0..*</text>
   <text x="69" y="166" fill="#000000" font-size="10" font-family="Arial" text-anchor="middle">to</text>
   <defs>
      <linearGradient id="Gradient1" x1="0%" x2="100%" y1="0%" y2="100%" gradientUnits="objectBoundingBox">
         <stop offset="5%" stop-color="#ffffff"/>
         <stop offset="95%" stop-color="#aee4ff"/>
      </linearGradient>
   </defs>
   <rect x="26" y="35" fill="url(#Gradient1)" width="64" height="55" stroke="#0080ff" stroke-width="1"/>
   <text x="57" y="46" fill="#000000" font-size="10" font-family="Arial" text-anchor="middle">SitesTypes</text>
   <line x1="26" x2="90" y1="54" y2="54" stroke="#0080ff" stroke-width="1"/>
   <line x1="26" x2="90" y1="71" y2="71" stroke="#0080ff" stroke-width="1"/>
   <defs>
      <linearGradient id="Gradient2" x1="0%" x2="100%" y1="0%" y2="100%" gradientUnits="objectBoundingBox">
         <stop offset="5%" stop-color="#ffffff"/>
         <stop offset="95%" stop-color="#aee4ff"/>
      </linearGradient>
   </defs>
   <rect x="23" y="172" fill="url(#Gradient2)" width="64" height="55" stroke="#0080ff" stroke-width="1"/>
   <text x="54" y="183" fill="#000000" font-size="10" font-family="Arial" text-anchor="middle">Sites</text>
   <line x1="23" x2="87" y1="191" y2="191" stroke="#0080ff" stroke-width="1"/>
   <line x1="23" x2="87" y1="208" y2="208" stroke="#0080ff" stroke-width="1"/>
</svg>
