<?xml version="1.0" encoding="UTF-8" standalone="no" ?>
<!DOCTYPE svg PUBLIC "-//W3C//DTD SVG 1.1//EN" "http://www.w3.org/Graphics/SVG/1.1/DTD/svg11.dtd">
<svg width="252mm" xmlns="http://www.w3.org/2000/svg" height="149mm" version="1.1" viewBox="0 0 956 565" xmlns:xlink="http://www.w3.org/1999/xlink">
   <polyline fill="none" points="51,353 51,503" stroke="#0080ff" stroke-width="1"/>
   <text x="37" y="375" fill="#000000" font-size="10" font-family="Arial" text-anchor="middle">0..*</text>
   <text x="37" y="385" fill="#000000" font-size="10" font-family="Arial" text-anchor="middle">from</text>
   <text x="39" y="477" fill="#000000" font-size="10" font-family="Arial" text-anchor="middle">0..*</text>
   <text x="39" y="487" fill="#000000" font-size="10" font-family="Arial" text-anchor="middle">to</text>
   <polyline fill="none" points="861,347 737,347" stroke="#0080ff" stroke-width="1"/>
   <text x="835" y="342" fill="#000000" font-size="10" font-family="Arial" text-anchor="middle">0..1</text>
   <text x="760" y="341" fill="#000000" font-size="10" font-family="Arial" text-anchor="middle">0..*</text>
   <polyline fill="none" points="713,347 542,347" stroke="#0080ff" stroke-width="1"/>
   <text x="664" y="360" fill="#000000" font-size="10" font-family="Arial" text-anchor="middle">0..*</text>
   <text x="664" y="370" fill="#000000" font-size="10" font-family="Arial" text-anchor="middle">from</text>
   <text x="606" y="361" fill="#000000" font-size="10" font-family="Arial" text-anchor="middle">0..*</text>
   <text x="606" y="371" fill="#000000" font-size="10" font-family="Arial" text-anchor="middle">to</text>
   <polyline fill="none" points="536,486 536,374" stroke="#0080ff" stroke-width="1"/>
   <text x="552" y="455" fill="#000000" font-size="10" font-family="Arial" text-anchor="middle">0..*</text>
   <text x="552" y="465" fill="#000000" font-size="10" font-family="Arial" text-anchor="middle">from</text>
   <text x="547" y="388" fill="#000000" font-size="10" font-family="Arial" text-anchor="middle">0..*</text>
   <text x="547" y="398" fill="#000000" font-size="10" font-family="Arial" text-anchor="middle">to</text>
   <polyline fill="none" points="249,531 100,531" stroke="#0080ff" stroke-width="1"/>
   <text x="227" y="544" fill="#000000" font-size="10" font-family="Arial" text-anchor="middle">0..*</text>
   <text x="227" y="554" fill="#000000" font-size="10" font-family="Arial" text-anchor="middle">from</text>
   <text x="118" y="546" fill="#000000" font-size="10" font-family="Arial" text-anchor="middle">0..*</text>
   <text x="118" y="556" fill="#000000" font-size="10" font-family="Arial" text-anchor="middle">to</text>
   <polyline fill="none" points="281,45 281,175" stroke="#0080ff" stroke-width="1"/>
   <text x="269" y="68" fill="#000000" font-size="10" font-family="Arial" text-anchor="middle">0..*</text>
   <text x="269" y="78" fill="#000000" font-size="10" font-family="Arial" text-anchor="middle">from</text>
   <text x="268" y="149" fill="#000000" font-size="10" font-family="Arial" text-anchor="middle">0..*</text>
   <text x="268" y="159" fill="#000000" font-size="10" font-family="Arial" text-anchor="middle">to</text>
   <polyline fill="none" points="89,198 253,198" stroke="#0080ff" stroke-width="1"/>
   <text x="110" y="210" fill="#000000" font-size="10" font-family="Arial" text-anchor="middle">0..*</text>
   <text x="110" y="220" fill="#000000" font-size="10" font-family="Arial" text-anchor="middle">from</text>
   <text x="230" y="211" fill="#000000" font-size="10" font-family="Arial" text-anchor="middle">0..*</text>
   <text x="230" y="221" fill="#000000" font-size="10" font-family="Arial" text-anchor="middle">to</text>
   <polyline fill="none" points="70,316 263,316 263,215" stroke="#0080ff" stroke-width="1"/>
   <text x="96" y="328" fill="#000000" font-size="10" font-family="Arial" text-anchor="middle">0..*</text>
   <text x="96" y="338" fill="#000000" font-size="10" font-family="Arial" text-anchor="middle">from</text>
   <text x="277" y="235" fill="#000000" font-size="10" font-family="Arial" text-anchor="middle">0..*</text>
   <text x="277" y="245" fill="#000000" font-size="10" font-family="Arial" text-anchor="middle">to</text>
   <polyline fill="none" points="299,511 299,214" stroke="#0080ff" stroke-width="1"/>
   <text x="315" y="483" fill="#000000" font-size="10" font-family="Arial" text-anchor="middle">0..*</text>
   <text x="315" y="493" fill="#000000" font-size="10" font-family="Arial" text-anchor="middle">from</text>
   <text x="310" y="236" fill="#000000" font-size="10" font-family="Arial" text-anchor="middle">0..*</text>
   <text x="310" y="246" fill="#000000" font-size="10" font-family="Arial" text-anchor="middle">to</text>
   <polyline fill="none" points="713,323 713,198 297,198" stroke="#0080ff" stroke-width="1"/>
   <text x="698" y="299" fill="#000000" font-size="10" font-family="Arial" text-anchor="middle">0..*</text>
   <text x="698" y="309" fill="#000000" font-size="10" font-family="Arial" text-anchor="middle">from</text>
   <text x="324" y="180" fill="#000000" font-size="10" font-family="Arial" text-anchor="middle">0..*</text>
   <text x="324" y="190" fill="#000000" font-size="10" font-family="Arial" text-anchor="middle">to</text>
   <polyline fill="none" points="80,353 496,353" stroke="#0080ff" stroke-width="1"/>
   <text x="99" y="366" fill="#000000" font-size="10" font-family="Arial" text-anchor="middle">0..*</text>
   <text x="99" y="376" fill="#000000" font-size="10" font-family="Arial" text-anchor="middle">from</text>
   <text x="477" y="368" fill="#000000" font-size="10" font-family="Arial" text-anchor="middle">0..*</text>
   <text x="477" y="378" fill="#000000" font-size="10" font-family="Arial" text-anchor="middle">to</text>
   <defs>
      <linearGradient id="Gradient1" x1="0%" x2="100%" y1="0%" y2="100%" gradientUnits="objectBoundingBox">
         <stop offset="5%" stop-color="#ffffff"/>
         <stop offset="95%" stop-color="#aee4ff"/>
      </linearGradient>
   </defs>
   <rect x="19" y="306" fill="url(#Gradient1)" width="64" height="55" stroke="#0080ff" stroke-width="1"/>
   <text x="51" y="317" fill="#000000" font-size="10" font-family="Arial" text-anchor="middle">Entities</text>
   <line x1="19" x2="83" y1="325" y2="325" stroke="#0080ff" stroke-width="1"/>
   <line x1="19" x2="83" y1="342" y2="342" stroke="#0080ff" stroke-width="1"/>
   <defs>
      <linearGradient id="Gradient2" x1="0%" x2="100%" y1="0%" y2="100%" gradientUnits="objectBoundingBox">
         <stop offset="5%" stop-color="#ffffff"/>
         <stop offset="95%" stop-color="#aee4ff"/>
      </linearGradient>
   </defs>
   <rect x="244" y="502" fill="url(#Gradient2)" width="67" height="55" stroke="#0080ff" stroke-width="1"/>
   <text x="277" y="513" fill="#000000" font-size="10" font-family="Arial" text-anchor="middle">Cardinalities</text>
   <line x1="244" x2="311" y1="521" y2="521" stroke="#0080ff" stroke-width="1"/>
   <line x1="244" x2="311" y1="538" y2="538" stroke="#0080ff" stroke-width="1"/>
   <defs>
      <linearGradient id="Gradient3" x1="0%" x2="100%" y1="0%" y2="100%" gradientUnits="objectBoundingBox">
         <stop offset="5%" stop-color="#ffffff"/>
         <stop offset="95%" stop-color="#aee4ff"/>
      </linearGradient>
   </defs>
   <rect x="2" y="495" fill="url(#Gradient3)" width="103" height="55" stroke="#0080ff" stroke-width="1"/>
   <text x="52" y="506" fill="#000000" font-size="10" font-family="Arial" text-anchor="middle">Imports</text>
   <line x1="2" x2="105" y1="514" y2="514" stroke="#0080ff" stroke-width="1"/>
   <line x1="2" x2="105" y1="531" y2="531" stroke="#0080ff" stroke-width="1"/>
   <text x="6" y="541" fill="#000000" font-size="10" font-family="Arial">+</text>
   <text x="20" y="541" fill="#000000" font-size="10" font-family="Arial">dependencies ()</text>
   <defs>
      <linearGradient id="Gradient4" x1="0%" x2="100%" y1="0%" y2="100%" gradientUnits="objectBoundingBox">
         <stop offset="5%" stop-color="#ffffff"/>
         <stop offset="95%" stop-color="#aee4ff"/>
      </linearGradient>
   </defs>
   <rect x="502" y="472" fill="url(#Gradient4)" width="71" height="55" stroke="#0080ff" stroke-width="1"/>
   <text x="536" y="483" fill="#000000" font-size="10" font-family="Arial" text-anchor="middle">Relationships</text>
   <line x1="502" x2="573" y1="491" y2="491" stroke="#0080ff" stroke-width="1"/>
   <line x1="502" x2="573" y1="508" y2="508" stroke="#0080ff" stroke-width="1"/>
   <defs>
      <linearGradient id="Gradient5" x1="0%" x2="100%" y1="0%" y2="100%" gradientUnits="objectBoundingBox">
         <stop offset="5%" stop-color="#ffffff"/>
         <stop offset="95%" stop-color="#aee4ff"/>
      </linearGradient>
   </defs>
   <rect x="490" y="319" fill="url(#Gradient5)" width="103" height="55" stroke="#0080ff" stroke-width="1"/>
   <text x="541" y="330" fill="#000000" font-size="10" font-family="Arial" text-anchor="middle">AttributesProperties</text>
   <line x1="490" x2="593" y1="338" y2="338" stroke="#0080ff" stroke-width="1"/>
   <line x1="490" x2="593" y1="355" y2="355" stroke="#0080ff" stroke-width="1"/>
   <text x="494" y="365" fill="#000000" font-size="10" font-family="Arial">+</text>
   <text x="508" y="365" fill="#000000" font-size="10" font-family="Arial">dependencies ()</text>
   <defs>
      <linearGradient id="Gradient6" x1="0%" x2="100%" y1="0%" y2="100%" gradientUnits="objectBoundingBox">
         <stop offset="5%" stop-color="#ffffff"/>
         <stop offset="95%" stop-color="#aee4ff"/>
      </linearGradient>
   </defs>
   <rect x="680" y="317" fill="url(#Gradient6)" width="66" height="55" stroke="#0080ff" stroke-width="1"/>
   <text x="712" y="328" fill="#000000" font-size="10" font-family="Arial" text-anchor="middle">Attributes</text>
   <line x1="680" x2="746" y1="336" y2="336" stroke="#0080ff" stroke-width="1"/>
   <line x1="680" x2="746" y1="353" y2="353" stroke="#0080ff" stroke-width="1"/>
   <defs>
      <linearGradient id="Gradient7" x1="0%" x2="100%" y1="0%" y2="100%" gradientUnits="objectBoundingBox">
         <stop offset="5%" stop-color="#ffffff"/>
         <stop offset="95%" stop-color="#aee4ff"/>
      </linearGradient>
   </defs>
   <rect x="851" y="315" fill="url(#Gradient7)" width="103" height="55" stroke="#0080ff" stroke-width="1"/>
   <text x="902" y="326" fill="#000000" font-size="10" font-family="Arial" text-anchor="middle">AttributesTypes</text>
   <line x1="851" x2="954" y1="334" y2="334" stroke="#0080ff" stroke-width="1"/>
   <line x1="851" x2="954" y1="351" y2="351" stroke="#0080ff" stroke-width="1"/>
   <text x="855" y="361" fill="#000000" font-size="10" font-family="Arial">+</text>
   <text x="869" y="361" fill="#000000" font-size="10" font-family="Arial">dependencies ()</text>
   <defs>
      <linearGradient id="Gradient8" x1="0%" x2="100%" y1="0%" y2="100%" gradientUnits="objectBoundingBox">
         <stop offset="5%" stop-color="#ffffff"/>
         <stop offset="95%" stop-color="#aee4ff"/>
      </linearGradient>
   </defs>
   <rect x="247" y="2" fill="url(#Gradient8)" width="75" height="55" stroke="#0080ff" stroke-width="1"/>
   <text x="284" y="13" fill="#000000" font-size="10" font-family="Arial" text-anchor="middle">Developments</text>
   <line x1="247" x2="322" y1="21" y2="21" stroke="#0080ff" stroke-width="1"/>
   <line x1="247" x2="322" y1="38" y2="38" stroke="#0080ff" stroke-width="1"/>
   <defs>
      <linearGradient id="Gradient9" x1="0%" x2="100%" y1="0%" y2="100%" gradientUnits="objectBoundingBox">
         <stop offset="5%" stop-color="#ffffff"/>
         <stop offset="95%" stop-color="#aee4ff"/>
      </linearGradient>
   </defs>
   <rect x="22" y="171" fill="url(#Gradient9)" width="74" height="55" stroke="#0080ff" stroke-width="1"/>
   <text x="58" y="182" fill="#000000" font-size="10" font-family="Arial" text-anchor="middle">Models</text>
   <line x1="22" x2="96" y1="190" y2="190" stroke="#0080ff" stroke-width="1"/>
   <line x1="22" x2="96" y1="207" y2="207" stroke="#0080ff" stroke-width="1"/>
   <defs>
      <linearGradient id="Gradient10" x1="0%" x2="100%" y1="0%" y2="100%" gradientUnits="objectBoundingBox">
         <stop offset="5%" stop-color="#ffffff"/>
         <stop offset="95%" stop-color="#aee4ff"/>
      </linearGradient>
   </defs>
   <rect x="247" y="167" fill="url(#Gradient10)" width="64" height="55" stroke="#0080ff" stroke-width="1"/>
   <text x="279" y="178" fill="#000000" font-size="10" font-family="Arial" text-anchor="middle">Sites</text>
   <line x1="247" x2="311" y1="186" y2="186" stroke="#0080ff" stroke-width="1"/>
   <line x1="247" x2="311" y1="203" y2="203" stroke="#0080ff" stroke-width="1"/>
   <text x="251" y="213" fill="#000000" font-size="10" font-family="Arial">+</text>
   <text x="265" y="213" fill="#000000" font-size="10" font-family="Arial">Sites ()</text>
</svg>
