<?xml version="1.0" encoding="UTF-8" standalone="no" ?>
<!DOCTYPE svg PUBLIC "-//W3C//DTD SVG 1.1//EN" "http://www.w3.org/Graphics/SVG/1.1/DTD/svg11.dtd">
<svg width="114mm" xmlns="http://www.w3.org/2000/svg" height="218mm" version="1.1" viewBox="0 0 432 825" xmlns:xlink="http://www.w3.org/1999/xlink">
   <polyline fill="none" points="209,51 209,139" stroke="#0080ff" stroke-width="1"/>
   <text x="224" y="71" fill="#000000" font-size="10" font-family="Arial" text-anchor="middle">0..*</text>
   <text x="224" y="81" fill="#000000" font-size="10" font-family="Arial" text-anchor="middle">from</text>
   <text x="224" y="120" fill="#000000" font-size="10" font-family="Arial" text-anchor="middle">0..*</text>
   <text x="224" y="130" fill="#000000" font-size="10" font-family="Arial" text-anchor="middle">to</text>
   <polyline fill="none" points="211,186 211,264" stroke="#0080ff" stroke-width="1"/>
   <text x="226" y="205" fill="#000000" font-size="10" font-family="Arial" text-anchor="middle">0..1</text>
   <text x="222" y="248" fill="#000000" font-size="10" font-family="Arial" text-anchor="middle">0..*</text>
   <polyline fill="none" points="212,393 212,306" stroke="#0080ff" stroke-width="1"/>
   <text x="224" y="381" fill="#000000" font-size="10" font-family="Arial" text-anchor="middle">0..1</text>
   <text x="223" y="322" fill="#000000" font-size="10" font-family="Arial" text-anchor="middle">0..*</text>
   <polyline fill="none" points="245,417 363,417" stroke="#0080ff" stroke-width="1"/>
   <text x="266" y="413" fill="#000000" font-size="10" font-family="Arial" text-anchor="middle">0..1</text>
   <text x="344" y="412" fill="#000000" font-size="10" font-family="Arial" text-anchor="middle">0..*</text>
   <polyline fill="none" points="211,432 211,527" stroke="#0080ff" stroke-width="1"/>
   <text x="225" y="455" fill="#000000" font-size="10" font-family="Arial" text-anchor="middle">0..1</text>
   <text x="224" y="513" fill="#000000" font-size="10" font-family="Arial" text-anchor="middle">0..*</text>
   <polyline fill="none" points="212,656 212,568" stroke="#0080ff" stroke-width="1"/>
   <text x="226" y="643" fill="#000000" font-size="10" font-family="Arial" text-anchor="middle">0..1</text>
   <text x="224" y="587" fill="#000000" font-size="10" font-family="Arial" text-anchor="middle">0..*</text>
   <text x="124" y="703" fill="#000000" font-size="10" font-family="Arial" text-anchor="middle">from</text>
   <text x="124" y="662" fill="#000000" font-size="10" font-family="Arial" text-anchor="middle">to</text>
   <polyline fill="none" points="182,671 70,671" stroke="#0080ff" stroke-width="1"/>
   <text x="162" y="664" fill="#000000" font-size="10" font-family="Arial" text-anchor="middle">0..1</text>
   <text x="86" y="666" fill="#000000" font-size="10" font-family="Arial" text-anchor="middle">0..*</text>
   <polyline fill="none" points="180,688 73,688" stroke="#0080ff" stroke-width="1"/>
   <text x="159" y="701" fill="#000000" font-size="10" font-family="Arial" text-anchor="middle">0..1</text>
   <text x="88" y="702" fill="#000000" font-size="10" font-family="Arial" text-anchor="middle">0..*</text>
   <polyline fill="none" points="37,585 37,662" stroke="#0080ff" stroke-width="1"/>
   <text x="51" y="605" fill="#000000" font-size="10" font-family="Arial" text-anchor="middle">0..1</text>
   <text x="49" y="643" fill="#000000" font-size="10" font-family="Arial" text-anchor="middle">0..*</text>
   <polyline fill="none" points="211,696 211,774" stroke="#0080ff" stroke-width="1"/>
   <text x="224" y="732" fill="#000000" font-size="10" font-family="Arial" text-anchor="middle">0..1</text>
   <text x="198" y="747" fill="#000000" font-size="10" font-family="Arial" text-anchor="middle">0..*</text>
   <polyline fill="none" points="243,683 366,683" stroke="#0080ff" stroke-width="1"/>
   <text x="276" y="677" fill="#000000" font-size="10" font-family="Arial" text-anchor="middle">0..1</text>
   <text x="329" y="694" fill="#000000" font-size="10" font-family="Arial" text-anchor="middle">0..*</text>
   <defs>
      <linearGradient id="Gradient1" x1="0%" x2="100%" y1="0%" y2="100%" gradientUnits="objectBoundingBox">
         <stop offset="5%" stop-color="#ffffff"/>
         <stop offset="95%" stop-color="#aee4ff"/>
      </linearGradient>
   </defs>
   <rect x="171" y="2" fill="url(#Gradient1)" width="75" height="55" stroke="#0080ff" stroke-width="1"/>
   <text x="207" y="13" fill="#000000" font-size="10" font-family="Arial" text-anchor="middle">Developments</text>
   <line x1="171" x2="246" y1="21" y2="21" stroke="#0080ff" stroke-width="1"/>
   <line x1="171" x2="246" y1="38" y2="38" stroke="#0080ff" stroke-width="1"/>
   <defs>
      <linearGradient id="Gradient2" x1="0%" x2="100%" y1="0%" y2="100%" gradientUnits="objectBoundingBox">
         <stop offset="5%" stop-color="#ffffff"/>
         <stop offset="95%" stop-color="#aee4ff"/>
      </linearGradient>
   </defs>
   <rect x="175" y="137" fill="url(#Gradient2)" width="74" height="55" stroke="#0080ff" stroke-width="1"/>
   <text x="211" y="148" fill="#000000" font-size="10" font-family="Arial" text-anchor="middle">Models</text>
   <line x1="175" x2="249" y1="156" y2="156" stroke="#0080ff" stroke-width="1"/>
   <line x1="175" x2="249" y1="173" y2="173" stroke="#0080ff" stroke-width="1"/>
   <defs>
      <linearGradient id="Gradient3" x1="0%" x2="100%" y1="0%" y2="100%" gradientUnits="objectBoundingBox">
         <stop offset="5%" stop-color="#ffffff"/>
         <stop offset="95%" stop-color="#aee4ff"/>
      </linearGradient>
   </defs>
   <rect x="177" y="386" fill="url(#Gradient3)" width="74" height="55" stroke="#0080ff" stroke-width="1"/>
   <text x="213" y="397" fill="#000000" font-size="10" font-family="Arial" text-anchor="middle">GroupIds</text>
   <line x1="177" x2="251" y1="405" y2="405" stroke="#0080ff" stroke-width="1"/>
   <line x1="177" x2="251" y1="422" y2="422" stroke="#0080ff" stroke-width="1"/>
   <defs>
      <linearGradient id="Gradient4" x1="0%" x2="100%" y1="0%" y2="100%" gradientUnits="objectBoundingBox">
         <stop offset="5%" stop-color="#ffffff"/>
         <stop offset="95%" stop-color="#aee4ff"/>
      </linearGradient>
   </defs>
   <rect x="176" y="650" fill="url(#Gradient4)" width="72" height="55" stroke="#0080ff" stroke-width="1"/>
   <text x="211" y="661" fill="#000000" font-size="10" font-family="Arial" text-anchor="middle">Entities</text>
   <line x1="176" x2="248" y1="669" y2="669" stroke="#0080ff" stroke-width="1"/>
   <line x1="176" x2="248" y1="686" y2="686" stroke="#0080ff" stroke-width="1"/>
   <defs>
      <linearGradient id="Gradient5" x1="0%" x2="100%" y1="0%" y2="100%" gradientUnits="objectBoundingBox">
         <stop offset="5%" stop-color="#ffffff"/>
         <stop offset="95%" stop-color="#aee4ff"/>
      </linearGradient>
   </defs>
   <rect x="3" y="537" fill="url(#Gradient5)" width="67" height="55" stroke="#0080ff" stroke-width="1"/>
   <text x="35" y="548" fill="#000000" font-size="10" font-family="Arial" text-anchor="middle">Cardinalities</text>
   <line x1="3" x2="70" y1="556" y2="556" stroke="#0080ff" stroke-width="1"/>
   <line x1="3" x2="70" y1="573" y2="573" stroke="#0080ff" stroke-width="1"/>
   <defs>
      <linearGradient id="Gradient6" x1="0%" x2="100%" y1="0%" y2="100%" gradientUnits="objectBoundingBox">
         <stop offset="5%" stop-color="#ffffff"/>
         <stop offset="95%" stop-color="#aee4ff"/>
      </linearGradient>
   </defs>
   <rect x="2" y="650" fill="url(#Gradient6)" width="71" height="55" stroke="#0080ff" stroke-width="1"/>
   <text x="36" y="661" fill="#000000" font-size="10" font-family="Arial" text-anchor="middle">Relationships</text>
   <line x1="2" x2="73" y1="669" y2="669" stroke="#0080ff" stroke-width="1"/>
   <line x1="2" x2="73" y1="686" y2="686" stroke="#0080ff" stroke-width="1"/>
   <defs>
      <linearGradient id="Gradient7" x1="0%" x2="100%" y1="0%" y2="100%" gradientUnits="objectBoundingBox">
         <stop offset="5%" stop-color="#ffffff"/>
         <stop offset="95%" stop-color="#aee4ff"/>
      </linearGradient>
   </defs>
   <rect x="180" y="768" fill="url(#Gradient7)" width="70" height="55" stroke="#0080ff" stroke-width="1"/>
   <text x="215" y="779" fill="#000000" font-size="10" font-family="Arial" text-anchor="middle">Attributes</text>
   <line x1="180" x2="250" y1="787" y2="787" stroke="#0080ff" stroke-width="1"/>
   <line x1="180" x2="250" y1="804" y2="804" stroke="#0080ff" stroke-width="1"/>
   <defs>
      <linearGradient id="Gradient8" x1="0%" x2="100%" y1="0%" y2="100%" gradientUnits="objectBoundingBox">
         <stop offset="5%" stop-color="#ffffff"/>
         <stop offset="95%" stop-color="#aee4ff"/>
      </linearGradient>
   </defs>
   <rect x="357" y="654" fill="url(#Gradient8)" width="72" height="55" stroke="#0080ff" stroke-width="1"/>
   <text x="393" y="665" fill="#000000" font-size="10" font-family="Arial" text-anchor="middle">NameQueries</text>
   <line x1="357" x2="429" y1="673" y2="673" stroke="#0080ff" stroke-width="1"/>
   <line x1="357" x2="429" y1="690" y2="690" stroke="#0080ff" stroke-width="1"/>
   <defs>
      <linearGradient id="Gradient9" x1="0%" x2="100%" y1="0%" y2="100%" gradientUnits="objectBoundingBox">
         <stop offset="5%" stop-color="#ffffff"/>
         <stop offset="95%" stop-color="#aee4ff"/>
      </linearGradient>
   </defs>
   <rect x="170" y="256" fill="url(#Gradient9)" width="84" height="55" stroke="#0080ff" stroke-width="1"/>
   <text x="211" y="267" fill="#000000" font-size="10" font-family="Arial" text-anchor="middle">ModelsGroupIds</text>
   <line x1="170" x2="254" y1="275" y2="275" stroke="#0080ff" stroke-width="1"/>
   <line x1="170" x2="254" y1="292" y2="292" stroke="#0080ff" stroke-width="1"/>
   <defs>
      <linearGradient id="Gradient10" x1="0%" x2="100%" y1="0%" y2="100%" gradientUnits="objectBoundingBox">
         <stop offset="5%" stop-color="#ffffff"/>
         <stop offset="95%" stop-color="#aee4ff"/>
      </linearGradient>
   </defs>
   <rect x="358" y="387" fill="url(#Gradient10)" width="72" height="55" stroke="#0080ff" stroke-width="1"/>
   <text x="393" y="398" fill="#000000" font-size="10" font-family="Arial" text-anchor="middle">GroupIdsFiles</text>
   <line x1="358" x2="430" y1="406" y2="406" stroke="#0080ff" stroke-width="1"/>
   <line x1="358" x2="430" y1="423" y2="423" stroke="#0080ff" stroke-width="1"/>
   <defs>
      <linearGradient id="Gradient11" x1="0%" x2="100%" y1="0%" y2="100%" gradientUnits="objectBoundingBox">
         <stop offset="5%" stop-color="#ffffff"/>
         <stop offset="95%" stop-color="#aee4ff"/>
      </linearGradient>
   </defs>
   <rect x="169" y="519" fill="url(#Gradient11)" width="85" height="55" stroke="#0080ff" stroke-width="1"/>
   <text x="210" y="530" fill="#000000" font-size="10" font-family="Arial" text-anchor="middle">GroupIdsEntities</text>
   <line x1="169" x2="254" y1="538" y2="538" stroke="#0080ff" stroke-width="1"/>
   <line x1="169" x2="254" y1="555" y2="555" stroke="#0080ff" stroke-width="1"/>
</svg>
